<?xml version="1.0" standalone="no"?>
<!DOCTYPE svg PUBLIC "-//W3C//DTD SVG 20010904//EN"
 "http://www.w3.org/TR/2001/REC-SVG-20010904/DTD/svg10.dtd">
<svg version="1.0" xmlns="http://www.w3.org/2000/svg"
 width="700.000000pt" height="700.000000pt" viewBox="0 0 700.000000 700.000000"
 preserveAspectRatio="xMidYMid meet">
<metadata>
Created by potrace 1.11, written by Peter Selinger 2001-2013
</metadata>
<g transform="translate(0.000000,700.000000) scale(0.100000,-0.100000)"
fill="#000000" stroke="none">
<path d="M1905 6371 l-1590 -568 3 -44 c5 -84 472 -4144 480 -4167 5 -18 302
-186 1359 -772 l1353 -749 302 168 c472 262 1468 814 1953 1081 242 134 443
246 447 249 5 4 461 3917 491 4210 2 23 -50 43 -1578 588 -869 310 -1591 566
-1605 568 -16 3 -589 -197 -1615 -564z m2939 -1492 c41 -33 59 -75 51 -124 -8
-60 -71 -185 -153 -307 -87 -129 -481 -642 -652 -848 -134 -161 -335 -379
-342 -370 -2 3 -31 45 -63 95 -74 112 -188 226 -307 305 l-91 61 294 296 c328
329 509 495 685 630 319 242 499 324 578 262z m-1567 -1378 c103 -70 185 -146
249 -234 50 -67 97 -153 92 -167 -2 -5 -59 -61 -127 -125 l-125 -116 -22 62
c-30 82 -103 187 -173 250 -53 48 -197 129 -228 129 -8 0 -13 4 -11 9 7 21
231 251 243 251 8 0 53 -27 102 -59z m-424 -346 c272 -71 427 -335 362 -614
-41 -174 -173 -292 -411 -370 -157 -51 -266 -65 -491 -65 -112 0 -205 3 -208
6 -3 3 15 38 39 78 59 96 84 202 96 411 5 87 14 178 21 201 44 164 187 309
348 354 64 17 176 17 244 -1z"/>
</g>
</svg>
